<?xml version="1.0"?>
<svg xmlns="http://www.w3.org/2000/svg" xmlns:xlink="http://www.w3.org/1999/xlink" version="1.1" id="Capa_1" x="0px" y="0px" viewBox="0 0 512 512" style="enable-background:new 0 0 512 512;" xml:space="preserve" width="512px" height="512px" class=""><g><g>
	<g>
		<path d="M218.727,492h-75.842v-3.922c16.601-0.914,53.691-5.846,76.225-31.028c27.035-30.227,21.921-77.801,20.514-87.516    c-0.067-1.112-0.321-2.222-0.77-3.283c-1.485-3.519-4.846-5.884-8.66-6.095c-0.481-0.026-3.241-0.161-7.564-0.06    c23.028-30.247,18.336-73.947,16.994-83.214c-0.067-1.112-0.321-2.222-0.77-3.283c-1.486-3.519-4.846-5.884-8.66-6.095    c-0.484-0.027-3.269-0.162-7.629-0.058c23.103-30.25,18.403-74.024,17.059-83.299c-0.067-1.112-0.321-2.222-0.77-3.283    c-1.486-3.519-4.846-5.884-8.66-6.095c-0.482-0.026-3.251-0.161-7.587-0.059c23.054-30.249,18.36-73.975,17.016-83.244    c-0.067-1.112-0.321-2.222-0.77-3.283c-1.486-3.519-4.846-5.884-8.66-6.095c-2.309-0.127-56.853-2.748-86.204,30.072    c-4.577,5.118-8.197,10.766-11.053,16.662c-2.856-5.896-6.476-11.544-11.053-16.662C92.532,79.34,37.99,81.958,35.68,82.087    c-3.814,0.211-7.168,2.584-8.654,6.103c-0.432,1.023-0.683,2.094-0.76,3.167c-1.321,9.029-6.145,52.981,17,83.351    c-4.336-0.102-7.104,0.033-7.586,0.06c-3.814,0.211-7.168,2.584-8.654,6.103c-0.432,1.023-0.683,2.094-0.76,3.167    c-1.322,9.035-6.151,53.035,17.043,83.406c-4.36-0.103-7.145,0.032-7.629,0.059c-3.814,0.211-7.168,2.584-8.654,6.103    c-0.432,1.023-0.683,2.094-0.76,3.167c-1.321,9.026-6.141,52.951,16.978,83.32c-4.323-0.1-7.082,0.034-7.563,0.061    c-3.814,0.211-7.168,2.584-8.654,6.103c-0.432,1.024-0.683,2.094-0.76,3.167c-1.384,9.462-6.639,57.282,20.5,87.625    c22.491,25.134,59.487,30.094,76.12,31.022V492H10c-5.523,0-10,4.477-10,10s4.477,10,10,10h208.727c5.523,0,10-4.477,10-10    S224.25,492,218.727,492z M158.898,125.492c16.974-18.979,47.11-22.711,61.754-23.362c0.983,14.443,0.612,44.442-16.448,63.517    c-16.914,18.901-46.233,23.284-60.666,24.276C142.227,175.12,141.956,144.434,158.898,125.492z M204.204,258.327    c-16.914,18.902-46.234,23.285-60.666,24.277c-1.31-14.804-1.581-45.491,15.36-64.431c16.974-18.979,47.11-22.711,61.754-23.362    C221.635,209.254,221.264,239.253,204.204,258.327z M158.898,310.909c16.974-18.979,47.11-22.711,61.754-23.362    c0.983,14.443,0.612,44.442-16.448,63.517c-7.031,7.857-16.207,13.2-25.565,16.839c-0.803,0.288-1.605,0.587-2.407,0.897    c-12.374,4.424-24.775,5.996-32.694,6.54C142.227,360.536,141.956,329.851,158.898,310.909z M158.898,403.561    c16.974-18.979,47.11-22.711,61.754-23.362c0.983,14.443,0.611,44.443-16.448,63.516C187.29,462.617,157.97,467,143.538,467.992    C142.227,453.188,141.956,422.502,158.898,403.561z M45.223,102.11c14.616,0.621,44.695,4.31,61.752,23.382    c16.943,18.943,16.67,49.63,15.359,64.432c-14.411-0.991-43.746-5.37-60.665-24.276C44.603,146.565,44.239,116.546,45.223,102.11z     M45.223,194.791c14.616,0.621,44.696,4.31,61.753,23.382c16.942,18.942,16.67,49.63,15.36,64.433    c-14.411-0.991-43.746-5.37-60.665-24.276C44.603,239.247,44.239,209.227,45.223,194.791z M45.223,287.527    c14.616,0.621,44.695,4.31,61.752,23.382c16.943,18.943,16.67,49.63,15.359,64.432c-7.904-0.543-20.296-2.113-32.668-6.532    c-0.822-0.318-1.645-0.624-2.468-0.92c-9.343-3.637-18.505-8.976-25.527-16.823C44.603,331.983,44.239,301.963,45.223,287.527z     M122.336,467.994c-14.411-0.991-43.746-5.37-60.665-24.276C44.61,424.643,44.239,394.643,45.222,380.2    c14.644,0.651,44.78,4.382,61.754,23.362C123.919,422.504,123.646,453.191,122.336,467.994z" data-original="#000000" class="active-path" data-old_color="#000000" fill="#FFFFFF"/>
	</g>
</g><g>
	<g>
		<path d="M132.885,29.667c-5.523,0-10,4.477-10,10v36.098c0,5.522,4.477,9.999,10,9.999s10-4.477,10-10V39.667    C142.885,34.144,138.408,29.667,132.885,29.667z" data-original="#000000" class="active-path" data-old_color="#000000" fill="#FFFFFF"/>
	</g>
</g><g>
	<g>
		<path d="M132.885,0c-5.523,0-10,4.477-10,10v0.113c0,5.523,4.477,10,10,10s10-4.477,10-10V10C142.885,4.477,138.408,0,132.885,0z" data-original="#000000" class="active-path" data-old_color="#000000" fill="#FFFFFF"/>
	</g>
</g><g>
	<g>
		<path d="M93.685,39.489c-5.523,0-10,4.477-10,10v25.083c0,5.523,4.477,10,10,10s10-4.477,10-10V49.489    C103.685,43.966,99.208,39.489,93.685,39.489z" data-original="#000000" class="active-path" data-old_color="#000000" fill="#FFFFFF"/>
	</g>
</g><g>
	<g>
		<path d="M93.685,9.822c-5.523,0-10,4.477-10,10v0.113c0,5.523,4.477,10,10,10s10-4.477,10-10v-0.113    C103.685,14.299,99.208,9.822,93.685,9.822z" data-original="#000000" class="active-path" data-old_color="#000000" fill="#FFFFFF"/>
	</g>
</g><g>
	<g>
		<path d="M172.085,39.489c-5.523,0-10,4.477-10,10v25.083c0,5.523,4.477,10,10,10s10-4.477,10-10V49.489    C182.085,43.966,177.608,39.489,172.085,39.489z" data-original="#000000" class="active-path" data-old_color="#000000" fill="#FFFFFF"/>
	</g>
</g><g>
	<g>
		<path d="M172.085,9.822c-5.523,0-10,4.477-10,10v0.113c0,5.523,4.477,10,10,10s10-4.477,10-10v-0.113    C182.085,14.299,177.608,9.822,172.085,9.822z" data-original="#000000" class="active-path" data-old_color="#000000" fill="#FFFFFF"/>
	</g>
</g><g>
	<g>
		<path d="M378.885,122.347c-5.523,0-10,4.477-10,10v36.098c0,5.523,4.477,10,10,10s10-4.477,10-10v-36.098    C388.885,126.824,384.408,122.347,378.885,122.347z" data-original="#000000" class="active-path" data-old_color="#000000" fill="#FFFFFF"/>
	</g>
</g><g>
	<g>
		<path d="M378.885,92.681c-5.523,0-10,4.477-10,10v0.113c0,5.523,4.477,10,10,10s10-4.477,10-10v-0.113    C388.885,97.158,384.408,92.681,378.885,92.681z" data-original="#000000" class="active-path" data-old_color="#000000" fill="#FFFFFF"/>
	</g>
</g><g>
	<g>
		<path d="M339.685,132.17c-5.523,0-10,4.477-10,10v25.083c0,5.523,4.477,10,10,10s10-4.477,10-10V142.17    C349.685,136.647,345.208,132.17,339.685,132.17z" data-original="#000000" class="active-path" data-old_color="#000000" fill="#FFFFFF"/>
	</g>
</g><g>
	<g>
		<path d="M339.685,102.503c-5.523,0-10,4.477-10,10v0.113c0,5.523,4.477,10,10,10s10-4.477,10-10v-0.113    C349.685,106.98,345.208,102.503,339.685,102.503z" data-original="#000000" class="active-path" data-old_color="#000000" fill="#FFFFFF"/>
	</g>
</g><g>
	<g>
		<path d="M418.085,132.17c-5.523,0-10,4.477-10,10v25.083c0,5.523,4.477,10,10,10s10-4.477,10-10V142.17    C428.085,136.647,423.608,132.17,418.085,132.17z" data-original="#000000" class="active-path" data-old_color="#000000" fill="#FFFFFF"/>
	</g>
</g><g>
	<g>
		<path d="M418.085,102.503c-5.523,0-10,4.477-10,10v0.113c0,5.523,4.477,10,10,10s10-4.477,10-10v-0.113    C428.085,106.98,423.608,102.503,418.085,102.503z" data-original="#000000" class="active-path" data-old_color="#000000" fill="#FFFFFF"/>
	</g>
</g><g>
	<g>
		<path d="M253.386,492h-0.13c-5.523,0-10,4.477-10,10s4.477,10,10,10h0.13c5.523,0,10-4.477,10-10S258.909,492,253.386,492z" data-original="#000000" class="active-path" data-old_color="#000000" fill="#FFFFFF"/>
	</g>
</g><g>
	<g>
		<path d="M502,492H388.885v-3.921c16.601-0.914,53.691-5.846,76.225-31.028c27.035-30.227,21.921-77.801,20.514-87.516    c-0.067-1.112-0.321-2.222-0.77-3.283c-1.485-3.519-4.846-5.884-8.66-6.095c-0.481-0.026-3.241-0.161-7.564-0.06    c23.029-30.247,18.337-73.947,16.994-83.214c-0.067-1.112-0.321-2.222-0.77-3.283c-1.486-3.519-4.846-5.884-8.66-6.095    c-0.484-0.027-3.269-0.162-7.629-0.058c23.103-30.25,18.403-74.024,17.059-83.299c-0.067-1.112-0.321-2.222-0.77-3.283    c-1.486-3.519-4.846-5.884-8.66-6.095c-2.307-0.126-56.853-2.748-86.204,30.072c-4.577,5.118-8.197,10.766-11.053,16.663    c-2.856-5.897-6.476-11.545-11.053-16.663c-29.351-32.82-83.897-30.202-86.204-30.073c-3.814,0.211-7.168,2.584-8.654,6.103    c-0.432,1.023-0.683,2.094-0.76,3.167c-1.322,9.035-6.151,53.035,17.043,83.406c-4.36-0.103-7.145,0.032-7.629,0.059    c-3.814,0.211-7.168,2.584-8.654,6.103c-0.432,1.023-0.683,2.094-0.76,3.167c-1.321,9.026-6.141,52.951,16.978,83.32    c-4.323-0.101-7.083,0.034-7.563,0.061c-3.814,0.211-7.168,2.584-8.654,6.103c-0.432,1.024-0.683,2.094-0.76,3.167    c-1.384,9.462-6.639,57.282,20.5,87.625c22.491,25.134,59.487,30.094,76.12,31.022V492h-81.551c-5.523,0-10,4.477-10,10    s4.477,10,10,10H502c5.523,0,10-4.477,10-10S507.523,492,502,492z M404.898,218.173c16.974-18.979,47.11-22.711,61.754-23.362    c0.983,14.443,0.612,44.442-16.448,63.516c-16.914,18.902-46.233,23.285-60.666,24.277    C388.228,267.8,387.957,237.114,404.898,218.173z M404.898,310.909c16.974-18.979,47.11-22.711,61.754-23.362    c0.983,14.443,0.612,44.442-16.448,63.517c-7.033,7.859-16.211,13.202-25.571,16.841c-0.799,0.287-1.598,0.585-2.396,0.893    c-12.376,4.425-24.779,5.998-32.699,6.542C388.227,360.536,387.956,329.851,404.898,310.909z M404.898,403.561    c16.974-18.979,47.11-22.711,61.754-23.362c0.983,14.443,0.611,44.443-16.448,63.516C433.29,462.617,403.97,467,389.538,467.992    C388.227,453.188,387.956,422.502,404.898,403.561z M291.223,194.791c14.616,0.621,44.695,4.31,61.752,23.382    c16.941,18.942,16.669,49.629,15.359,64.432c-14.411-0.991-43.746-5.37-60.665-24.276    C290.603,239.247,290.239,209.227,291.223,194.791z M291.223,287.527c14.616,0.621,44.695,4.31,61.752,23.382    c16.943,18.943,16.67,49.63,15.359,64.432c-7.905-0.543-20.299-2.113-32.672-6.534c-0.819-0.317-1.639-0.622-2.458-0.916    c-9.346-3.637-18.509-8.977-25.533-16.825C290.603,331.983,290.239,301.963,291.223,287.527z M368.336,467.994    c-14.411-0.991-43.746-5.37-60.665-24.276c-17.061-19.075-17.432-49.075-16.449-63.518c14.644,0.651,44.78,4.382,61.754,23.362    C369.919,422.504,369.646,453.191,368.336,467.994z" data-original="#000000" class="active-path" data-old_color="#000000" fill="#FFFFFF"/>
	</g>
</g></g> </svg>
